avconv version 9.18-6:9.18-0ubuntu0.14.04.1+fdkaac, Copyright (c) 2000-2014 the Libav developers
  built on Apr 10 2015 23:18:58 with gcc 4.8 (Ubuntu 4.8.2-19ubuntu1)
Input #0, image2, from 'imagenes/Cubo%02d.png':
  Duration: 00:00:04.00, start: 0.000000, bitrate: N/A
    Stream #0.0: Video: png, rgb24, 320x240, 25 fps, 25 tbr, 25 tbn
[libx264 @ 0x25c65a0] using cpu capabilities: MMX2 SSE2Fast SSSE3 SSE4.2 AVX
[libx264 @ 0x25c65a0] profile High, level 1.3
Output #0, avi, to 'result/cub_umh_19.avi':
  Metadata:
    ISFT            : Lavf54.20.4
    Stream #0.0: Video: libx264, yuv420p, 320x240, q=-1--1, 25 tbn, 25 tbc
Stream mapping:
  Stream #0:0 -> #0:0 (png -> libx264)
Press ctrl-c to stop encoding
frame=  100 fps=  0 q=32764.0 Lsize=     434kB time=3.92 bitrate= 906.6kbits/s    
video:187kB audio:0kB global headers:0kB muxing overhead 131.730383%
[libx264 @ 0x25c65a0] frame I:16    Avg QP:25.89  size:  6550
[libx264 @ 0x25c65a0] frame P:84    Avg QP:27.91  size:  3944
[libx264 @ 0x25c65a0] mb I  I16..4: 10.3% 80.7%  8.9%
[libx264 @ 0x25c65a0] mb P  I16..4:  4.8% 25.5%  4.4%  P16..4: 22.5% 25.8% 12.8%  0.0%  0.0%    skip: 4.3%
[libx264 @ 0x25c65a0] 8x8 transform intra:76.2% inter:74.6%
[libx264 @ 0x25c65a0] coded y,uvDC,uvAC intra: 71.3% 93.5% 76.3% inter: 54.0% 64.0% 14.7%
[libx264 @ 0x25c65a0] i16 v,h,dc,p: 11% 41% 12% 36%
[libx264 @ 0x25c65a0] i8 v,h,dc,ddl,ddr,vr,hd,vl,hu: 20% 15% 21%  6%  6%  9%  5% 12%  7%
[libx264 @ 0x25c65a0] i4 v,h,dc,ddl,ddr,vr,hd,vl,hu: 23% 10% 16%  9%  7% 10%  6% 13%  5%
[libx264 @ 0x25c65a0] i8c dc,h,v,p: 41% 20% 23% 17%
[libx264 @ 0x25c65a0] Weighted P-Frames: Y:17.9% UV:14.3%
[libx264 @ 0x25c65a0] kb/s:872.23
bench: utime=1.495s maxrss=48632kB
